Coordinates
version=1
nRows=24
nColumns=19
inDegrees=yes

Units are S.I. units (second, meters, Newtons, ...)
If the header above contains a line with 'inDegrees', this indicates whether rotational values are in degrees (yes) or radians (no).

endheader
time	pelvis_tilt	pelvis_list	pelvis_rotation	pelvis_tx	pelvis_ty	pelvis_tz	hip_flexion_r	hip_adduction_r	hip_rotation_r	knee_angle_r	knee_angle_r_beta	ankle_angle_r	hip_flexion_l	hip_adduction_l	hip_rotation_l	knee_angle_l	knee_angle_l_beta	ankle_angle_l
     13.65333333	     -1.74520643	      5.47837695	      3.84103781	      2.26042248	      0.91503569	      1.01985149	    -15.91785704	     -9.96003422	    -11.77438642	     88.77151459	      1.54935521	     -6.32251577	     24.68713624	     10.39434716	     -5.76611002	     19.27904256	      0.33648277	     -0.78866948
     13.66000000	     -1.95359454	      5.68516651	      4.22732217	      2.25967386	      0.90908909	      1.02024833	    -14.17361955	     -9.92453050	    -11.15699345	     93.00178542	      1.62318737	     -5.93514025	     25.38437214	     10.51899879	     -5.93891177	     22.65141826	      0.39534183	      0.69121395
     13.66666667	     -1.36192784	      6.32857280	      4.52739646	      2.25897305	      0.90376430	      1.02071558	    -13.41633751	    -10.54479418	    -10.88038134	     96.96195577	      1.69230538	     -5.59142275	     24.97464890	     11.05492620	     -6.16054193	     25.78255477	      0.44999047	      2.53512638
     13.67333333	     -2.35210411	      5.91739517	      4.97054288	      2.25751830	      0.89674494	      1.02120348	    -10.34244032	     -9.78761332	     -9.99553247	    101.11056001	      1.76471218	     -5.28781062	     26.70271672	     10.61257401	     -6.00648139	     29.77800109	      0.51972416	      4.62121069
     13.68000000	     -2.78945292	      5.97148573	      5.40976487	      2.25604375	      0.89034699	      1.02154940	     -7.96307408	     -9.78025790	     -9.49995344	    105.00623547	      1.83270454	     -4.98703031	     27.48214511	     10.70880029	     -5.78085329	     33.24415564	      0.58021997	      6.93354471
     13.68666667	     -3.21893866	      5.98418523	      5.83512787	      2.25427373	      0.88422374	      1.02189939	     -5.42579044	     -9.79892067	     -8.99441213	    108.72696838	      1.89764358	     -4.71278110	     28.09719683	     10.81089570	     -5.43785896	     36.48019631	      0.63669954	      9.39282933
     13.69333333	     -3.63589890	      5.97410505	      6.22824471	      2.25217194	      0.87854907	      1.02221935	     -2.70837048	     -9.86178573	     -8.44401323	    112.25261491	      1.95917772	     -4.44167209	     28.50223020	     10.92736196	     -5.00906738	     39.38335338	      0.68736919	     11.90506887
     13.70000000	     -4.10966161	      5.93966519	      6.61799155	      2.24979538	      0.87338006	      1.02249661	      0.25890956	     -9.96988378	     -7.86479455	    115.54501744	      2.01664099	     -4.16969586	     28.74253742	     11.05824104	     -4.49977919	     41.88312319	      0.73099840	     14.40462007
     13.70666667	     -4.36759361	      5.90392031	      7.02031855	      2.24736417	      0.86923745	      1.02273585	      3.10843268	    -10.10388245	     -7.33264703	    118.44164010	      2.06719659	     -3.90371012	     28.45200095	     11.20366925	     -3.87671090	     43.88457809	      0.76593038	     16.80562466
     13.71333333	     -3.15170977	      5.72377070	      8.12391161	      2.24706141	      0.86842746	      1.02240373	      3.63719506	     -9.85208531	     -7.97811091	    119.78984782	      2.09072725	     -3.77124199	     25.90940614	     11.31488212	     -2.38539680	     45.13557796	      0.78776445	     19.16361284
     13.72000000	     -0.55490084	      5.62624568	      9.51352764	      2.24825102	      0.87077364	      1.02183679	      2.18438916	     -9.46192775	     -9.31044289	    119.91112799	      2.09284399	     -3.68965288	     21.21362690	     11.25324057	     -0.43753071	     45.47416619	      0.79367392	     21.34485207
     13.72666667	      1.75504714	      5.43457083	     10.57928014	      2.24879999	      0.87352652	      1.02138926	      1.41858398	     -9.00298724	    -10.26063891	    119.94033965	      2.09335383	     -3.48095827	     16.66133031	     10.79927132	      1.30378770	     45.30429408	      0.79070910	     23.18233567
     13.73333333	      3.63509596	      5.14121205	     11.31490173	      2.24860634	      0.87645895	      1.02098180	      1.49785826	     -8.59657590	    -10.82323189	    119.95205498	      2.09355830	     -3.18099016	     12.45761637	     10.06505394	      2.75273051	     44.64369786	      0.77917952	     24.65369198
     13.74000000	      4.95899017	      4.70112570	     11.75111485	      2.24779924	      0.87932098	      1.02060073	      2.51253603	     -8.21894217	    -11.02894354	    119.95750887	      2.09365349	     -2.70379549	      8.80055796	      9.12810205	      3.88539340	     43.60570640	      0.76106315	     25.74836714
     13.74666667	      5.60818715	      4.15953388	     11.84436210	      2.24653920	      0.88197136	      1.02025414	      4.55283558	     -7.94948098	    -10.83899041	    119.95967192	      2.09369124	     -2.19111854	      5.81464926	      8.14767918	      4.63087783	     42.22182696	      0.73690990	     26.39283906
     13.75333333	      5.55353644	      3.52435054	     11.75314750	      2.24482217	      0.88417834	      1.01984792	      7.56533893	     -7.79528446	    -10.45604656	    119.95922810	      2.09368350	     -1.57964722	      3.58475629	      7.22780710	      5.18120086	     40.65500030	      0.70956361	     26.63093934
     13.76000000	      4.90245083	      2.96658391	     11.30430258	      2.24277169	      0.88601374	      1.01962905	     11.40497989	     -7.83468367	     -9.68954882	    119.95606923	      2.09362837	     -0.94638054	      1.93913517	      6.52128843	      5.33423776	     38.87548765	      0.67850526	     26.40936026
     13.76666667	      3.62130247	      2.58521834	     10.54770942	      2.24052820	      0.88729873	      1.01964042	     16.06404552	     -8.06990112	     -8.54439093	    119.94904520	      2.09350577	     -0.33548341	      0.91427846	      6.15901930	      5.16711779	     36.96382452	      0.64514044	     25.70989604
     13.77333333	      1.76866032	      2.52037368	      9.52927619	      2.23825259	      0.88792539	      1.01997414	     21.41525387	     -8.56290428	     -7.03050536	    119.93474900	      2.09325626	      0.30392837	      0.42227911	      6.25027234	      4.74434422	     34.92482436	      0.60955318	     24.53679346
     13.78000000	     -1.09811800	      2.55005210	      8.29343000	      2.23586559	      0.88727616	      1.02070362	     28.09214137	     -8.87130478	     -5.11988480	    119.90051925	      2.09265884	      0.62638320	      1.19160258	      6.56202039	      3.93535954	     33.15959458	      0.57874410	     23.03151971
     13.78666667	     -3.75963849	      3.28951935	      6.93316747	      2.23374185	      0.88659884	      1.02172038	     34.44420285	     -9.52699779	     -2.81456092	    119.72977993	      2.08967887	      0.98925437	      1.54540685	      7.54160462	      2.99719725	     31.09267828	      0.54266961	     20.93937482
     13.79333333	     -4.93440234	      3.41578258	      6.20533902	      2.23403412	      0.88925274	      1.02206196	     38.01991813	     -9.61497235	     -2.05534681	    118.10664022	      2.06134974	      1.39924219	     -0.05861399	      7.59910053	      2.66344162	     28.33130279	      0.49447452	     18.20127862
     13.80000000	     -5.29445330	      2.76007997	      5.75731106	      2.23611999	      0.89438822	      1.02209661	     39.82230956	     -8.98968616	     -2.47054787	    115.30651999	      2.01247842	      1.68599980	     -2.72420434	      6.69914685	      2.54084910	     25.09830961	      0.43804814	     14.86732673
     13.80666667	     -5.16255397	      1.92265706	      5.49564241	      2.23877546	      0.90041789	      1.02198303	     40.61647607	     -8.34669766	     -3.39754882	    112.05343183	      1.95570132	      2.15511339	     -5.90392870	      5.53890669	      2.42318726	     21.75875929	      0.37976199	     10.97457335
